<?xml version="1.0" standalone="no"?>
<!DOCTYPE svg PUBLIC "-//W3C//DTD SVG 20010904//EN"
 "http://www.w3.org/TR/2001/REC-SVG-20010904/DTD/svg10.dtd">
<svg version="1.0" xmlns="http://www.w3.org/2000/svg"
 width="512.000000pt" height="512.000000pt" viewBox="0 0 512.000000 512.000000"
 preserveAspectRatio="xMidYMid meet">

<g transform="translate(0.000000,512.000000) scale(0.100000,-0.100000)"
fill="#000000" stroke="none">
<path d="M2480 4828 c-80 -21 -161 -101 -185 -181 l-14 -47 199 0 200 0 0 120
0 120 -82 -1 c-46 -1 -99 -5 -118 -11z"/>
<path d="M2282 4388 c3 -119 5 -137 27 -171 13 -21 42 -50 64 -65 34 -23 52
-27 107 -27 55 0 73 4 107 27 22 15 51 44 64 65 22 34 24 52 27 171 l4 132
-202 0 -202 0 4 -132z"/>
<path d="M466 4344 c-34 -11 -64 -31 -102 -68 -91 -92 -85 22 -82 -1462 l3
-1299 28 -60 c36 -78 104 -146 181 -182 l61 -28 2040 0 2040 0 50 27 c59 31
94 67 126 128 l24 45 3 1335 c3 1524 9 1403 -84 1497 -87 88 -25 83 -1074 83
l-917 0 -6 -58 c-5 -57 -33 -129 -65 -164 -14 -17 -11 -18 54 -18 l69 0 199
-159 c166 -133 204 -159 225 -155 138 25 374 51 405 44 59 -13 104 -50 133
-108 33 -67 28 -136 -14 -196 -47 -67 -76 -75 -378 -113 l-274 -35 -113 68
c-62 37 -123 74 -135 82 l-23 14 0 -131 0 -131 234 -154 c128 -85 236 -158
239 -163 3 -5 20 -135 36 -288 43 -387 33 -345 96 -379 101 -52 179 -164 192
-275 10 -84 23 -81 -316 -81 -218 0 -300 3 -309 12 -8 8 -12 62 -12 178 0 144
-4 194 -37 394 l-38 229 -132 65 c-73 37 -134 64 -136 62 -3 -3 -55 -105 -116
-228 -61 -123 -117 -225 -124 -227 -6 -3 -169 -20 -361 -40 -192 -19 -350 -36
-351 -37 -1 -2 -15 -27 -30 -56 -54 -99 -164 -176 -274 -189 -84 -10 -81 -23
-81 316 0 218 3 300 12 309 8 8 64 12 183 13 154 1 186 4 350 37 l180 37 37
215 c33 194 37 233 37 403 l1 187 -89 0 -88 0 -73 -122 c-106 -179 -127 -206
-170 -228 -66 -33 -148 -24 -199 23 -30 28 -60 93 -61 130 0 32 195 565 214
584 15 15 489 93 567 93 58 0 61 1 47 18 -32 35 -60 107 -65 164 l-6 58 -841
-1 c-718 0 -848 -3 -890 -15z m448 -806 c8 -13 8 -23 0 -35 -10 -16 -32 -18
-189 -21 -182 -3 -205 2 -205 37 0 38 18 42 204 39 158 -3 180 -5 190 -20z
m3674 -150 c17 -17 17 -1319 0 -1336 -17 -17 -359 -17 -376 0 -17 17 -17 1319
0 1336 17 17 359 17 376 0z m-3674 -170 c8 -13 8 -23 0 -35 -10 -16 -32 -18
-189 -21 -182 -3 -205 2 -205 37 0 38 18 42 204 39 158 -3 180 -5 190 -20z m0
-320 c8 -13 8 -23 0 -35 -10 -16 -32 -18 -189 -21 -182 -3 -205 2 -205 37 0
38 18 42 204 39 158 -3 180 -5 190 -20z m-80 -320 c8 -13 8 -23 0 -35 -10 -16
-30 -18 -149 -21 -141 -3 -165 3 -165 37 0 37 20 42 164 39 119 -3 140 -5 150
-20z m-80 -320 c8 -13 8 -23 0 -35 -9 -15 -29 -19 -109 -21 -100 -3 -125 5
-125 37 0 35 21 42 124 39 81 -2 101 -6 110 -20z m1070 -390 c49 -15 114 -78
123 -118 l5 -30 1156 -2 c1087 -3 1155 -4 1166 -20 8 -13 8 -23 0 -35 -11 -17
-79 -18 -1168 -21 -1116 -2 -1156 -3 -1156 -21 0 -10 -13 -36 -29 -58 -71 -98
-216 -108 -303 -21 -21 21 -41 52 -45 68 l-5 30 -276 2 c-249 3 -276 5 -286
21 -8 12 -8 22 0 35 10 15 37 17 286 20 l276 2 5 30 c4 16 24 47 45 68 57 57
125 74 206 50z"/>
<path d="M4280 3200 l0 -120 120 0 120 0 0 120 0 120 -120 0 -120 0 0 -120z"/>
<path d="M4280 2880 l0 -120 120 0 120 0 0 120 0 120 -120 0 -120 0 0 -120z"/>
<path d="M4280 2560 l0 -120 120 0 120 0 0 120 0 120 -120 0 -120 0 0 -120z"/>
<path d="M4280 2240 l0 -120 120 0 120 0 0 120 0 120 -120 0 -120 0 0 -120z"/>
<path d="M1715 1791 c-45 -20 -70 -60 -70 -112 0 -42 5 -53 33 -81 28 -28 39
-33 82 -33 43 0 54 5 82 33 28 28 33 39 33 82 0 42 -5 54 -31 81 -33 33 -92
46 -129 30z"/>
<path d="M1925 4002 c-115 -19 -213 -40 -216 -45 -4 -5 -48 -121 -99 -257 -99
-267 -102 -279 -55 -326 27 -27 75 -31 113 -11 12 7 68 89 125 182 l102 170
139 3 c93 2 143 -1 152 -9 11 -9 14 -51 14 -200 l0 -189 280 0 280 0 0 163 c0
166 4 187 39 187 9 0 87 -43 174 -95 l157 -94 261 33 c257 33 261 34 291 63
59 59 40 156 -35 188 -30 12 -57 10 -243 -17 -140 -20 -214 -27 -224 -20 -9 5
-100 77 -204 161 l-188 151 -326 -1 c-326 -1 -327 -1 -537 -37z"/>
<path d="M2156 3013 c-21 -126 -43 -233 -49 -240 -7 -6 -86 -25 -177 -42 -91
-17 -175 -34 -187 -36 -22 -5 -23 -9 -23 -125 l0 -120 43 6 c23 3 169 18 325
33 155 16 284 30 286 32 2 2 56 109 120 237 64 128 124 236 133 239 10 4 83
-27 192 -83 l176 -89 39 -232 39 -233 117 0 116 0 -32 288 c-18 158 -33 288
-33 289 -1 2 -102 70 -226 153 l-225 150 -298 0 -299 0 -37 -227z"/>
<path d="M1400 2441 l0 -240 28 8 c83 24 143 73 183 151 21 39 24 62 27 183
l4 137 -121 0 -121 0 0 -239z"/>
<path d="M3080 2160 l0 -120 240 0 239 0 -14 45 c-25 84 -96 155 -181 181 -29
9 -92 14 -166 14 l-118 0 0 -120z"/>
<path d="M1783 1143 c-81 -224 -261 -421 -476 -518 l-52 -24 1305 0 1305 0
-52 24 c-196 89 -371 268 -454 464 l-28 66 -771 3 c-727 2 -771 1 -777 -15z"/>
<path d="M835 511 c-11 -5 -31 -21 -45 -36 -22 -23 -25 -38 -29 -111 l-3 -84
1802 0 1802 0 -3 85 c-4 80 -6 86 -37 117 l-32 33 -1718 2 c-944 1 -1726 -2
-1737 -6z"/>
</g>
</svg>
