<?xml version="1.0" standalone="no"?>
<!DOCTYPE svg PUBLIC "-//W3C//DTD SVG 20010904//EN"
 "http://www.w3.org/TR/2001/REC-SVG-20010904/DTD/svg10.dtd">
<svg version="1.0" xmlns="http://www.w3.org/2000/svg"
 width="512.000000pt" height="512.000000pt" viewBox="0 0 512.000000 512.000000"
 preserveAspectRatio="xMidYMid meet">

<g transform="translate(0.000000,512.000000) scale(0.100000,-0.100000)"
fill="#000000" stroke="none">
<path d="M1210 4919 c-19 -6 -49 -24 -67 -41 -46 -44 -56 -101 -51 -293 3
-179 13 -209 78 -252 30 -21 45 -23 155 -23 110 0 125 2 156 23 19 12 44 42
57 67 20 41 22 57 22 220 0 203 -10 240 -76 281 -33 20 -53 24 -139 26 -55 1
-116 -2 -135 -8z"/>
<path d="M3250 4919 c-19 -6 -49 -24 -67 -41 -46 -44 -56 -101 -51 -293 3
-179 13 -209 78 -252 30 -21 45 -23 155 -23 110 0 125 2 156 23 19 12 44 42
57 67 20 41 22 57 22 220 0 203 -10 240 -76 281 -33 20 -53 24 -139 26 -55 1
-116 -2 -135 -8z"/>
<path d="M502 2493 l3 -2048 30 -58 c105 -208 384 -256 548 -94 29 29 64 75
77 102 24 48 25 61 30 288 l5 239 28 24 28 24 1475 0 1474 0 0 1785 0 1785
-222 -2 -223 -3 -6 -80 c-3 -44 -13 -97 -22 -117 -24 -56 -101 -133 -160 -159
-47 -22 -66 -24 -202 -24 -144 0 -152 1 -207 28 -109 53 -168 148 -176 280
l-5 77 -631 -2 -631 -3 -6 -80 c-6 -96 -37 -162 -99 -219 -78 -71 -115 -81
-285 -81 -144 0 -152 1 -207 28 -110 54 -178 166 -178 292 l0 65 -220 0 -220
0 2 -2047z m1541 1325 c14 -13 159 -285 323 -605 164 -321 301 -583 304 -583
3 0 68 125 145 276 77 152 151 284 164 295 31 25 64 24 95 -3 33 -30 756
-1439 756 -1473 0 -39 -16 -62 -51 -74 -44 -15 -2805 -16 -2845 -1 -36 14 -53
38 -54 74 0 33 1040 2083 1067 2104 26 19 69 14 96 -10z m-888 -103 c27 -26
31 -49 15 -89 -13 -35 -68 -49 -174 -45 -78 4 -90 7 -107 28 -27 34 -24 77 7
106 25 23 34 25 131 25 97 0 106 -2 128 -25z m2019 4 c34 -27 37 -86 5 -115
-18 -16 -37 -19 -130 -19 -98 0 -110 2 -130 22 -32 31 -30 80 5 110 24 21 37
23 125 23 84 0 102 -3 125 -21z m609 10 c30 -16 37 -28 37 -70 0 -60 -25 -73
-139 -77 -106 -3 -138 7 -158 50 -16 33 0 86 31 98 32 13 204 12 229 -1z m11
-2390 c37 -29 37 -89 0 -118 l-27 -21 -1416 0 c-1117 0 -1421 3 -1441 13 -13
7 -29 25 -34 40 -13 36 2 78 34 94 20 10 324 13 1441 13 l1416 0 27 -21z"/>
<path d="M1690 2988 c-168 -326 -374 -726 -458 -890 l-153 -298 587 2 586 3
165 325 166 325 -288 563 c-158 309 -290 562 -293 562 -4 0 -144 -266 -312
-592z m421 34 c37 -31 28 -67 -52 -217 -60 -113 -79 -142 -102 -149 -36 -13
-78 9 -91 47 -9 24 -1 45 54 158 36 72 75 142 87 155 27 29 72 31 104 6z
m-310 -644 c16 -30 6 -60 -68 -203 -77 -147 -102 -172 -150 -145 -15 9 -34 27
-42 41 -14 25 -11 33 53 160 73 143 89 167 121 179 27 10 73 -7 86 -32z"/>
<path d="M2960 2842 c-36 -70 -170 -333 -298 -585 l-233 -457 596 0 596 0
-250 493 c-137 270 -271 533 -298 584 l-49 91 -64 -126z m122 -434 c9 -7 48
-77 88 -156 80 -160 83 -181 26 -209 -63 -29 -75 -18 -160 143 -42 80 -76 155
-76 165 0 50 82 88 122 57z"/>
<path d="M1350 642 c0 -218 -21 -301 -101 -403 -16 -20 -29 -40 -29 -43 0 -4
703 -5 1563 -4 l1562 3 60 24 c71 29 150 103 185 176 23 47 25 63 28 233 l4
182 -1636 0 -1636 0 0 -168z"/>
</g>
</svg>
