<?xml version="1.0" standalone="no"?>
<!DOCTYPE svg PUBLIC "-//W3C//DTD SVG 20010904//EN"
 "http://www.w3.org/TR/2001/REC-SVG-20010904/DTD/svg10.dtd">
<svg version="1.0" xmlns="http://www.w3.org/2000/svg"
 width="512.000000pt" height="512.000000pt" viewBox="0 0 512.000000 512.000000"
 preserveAspectRatio="xMidYMid meet">

<g transform="translate(0.000000,512.000000) scale(0.100000,-0.100000)"
fill="#000000" stroke="none">
<path d="M435 4941 c-97 -25 -187 -98 -232 -190 l-28 -56 0 -2135 0 -2135 28
-56 c32 -67 108 -141 174 -172 48 -22 54 -22 608 -25 l560 -3 0 86 0 85 -530
0 c-493 0 -533 2 -570 19 -48 22 -69 44 -90 94 -13 32 -15 266 -15 2107 0
1841 2 2075 15 2107 21 50 42 72 90 94 38 18 103 19 1436 19 l1396 0 44 -23
c27 -15 52 -38 66 -63 l23 -39 0 -890 0 -890 85 85 85 85 -2 830 -3 830 -24
50 c-33 66 -100 131 -169 163 l-57 27 -1430 2 c-786 0 -1443 -2 -1460 -6z"/>
<path d="M510 2560 l0 -2050 1365 0 1365 0 0 610 0 610 -52 -34 c-29 -18 -74
-45 -100 -60 -27 -15 -48 -30 -48 -33 0 -3 7 -41 16 -83 12 -61 15 -130 12
-326 l-3 -249 -28 -47 c-31 -53 -79 -94 -134 -114 -53 -19 -1984 -20 -2047 -2
-63 19 -140 100 -160 167 -21 71 -22 439 -2 551 53 291 272 529 548 596 l68
17 -28 31 c-88 101 -132 204 -168 392 -3 18 -13 22 -67 26 -211 17 -338 234
-249 423 43 91 112 144 212 166 27 6 50 12 50 14 0 1 -7 22 -16 46 -83 228
-91 414 -24 557 32 69 110 158 175 198 23 15 52 42 65 61 35 52 170 174 233
212 205 122 433 144 700 66 120 -34 195 -72 212 -106 24 -45 19 -103 -11 -139
-15 -17 -25 -32 -23 -34 2 -1 40 -22 84 -45 323 -172 442 -476 299 -763 -33
-67 -33 -68 -11 -68 38 0 123 -48 162 -92 54 -59 78 -120 79 -199 1 -164 -134
-299 -300 -299 l-41 0 -7 -52 c-15 -114 -72 -244 -151 -349 l-35 -46 102 -33
c57 -19 103 -29 105 -24 2 6 20 39 41 75 27 47 105 133 289 320 l253 255 0
952 0 952 -1365 0 -1365 0 0 -2050z"/>
<path d="M1760 4165 c-138 -31 -291 -135 -371 -252 -17 -23 -56 -61 -88 -82
-95 -65 -131 -118 -152 -224 -10 -53 5 -217 20 -217 4 0 14 12 22 26 22 43
106 111 156 128 26 9 77 16 115 16 77 0 189 -38 383 -130 211 -100 288 -115
499 -99 71 6 140 8 152 5 13 -4 39 -20 58 -37 l35 -30 20 39 c27 53 40 140 30
204 -21 134 -129 254 -301 336 -57 27 -115 54 -131 60 -65 27 -83 117 -37 183
28 38 23 42 -75 65 -97 23 -254 27 -335 9z"/>
<path d="M4735 3921 c-49 -12 -65 -25 -170 -130 l-100 -101 125 -125 125 -125
98 98 c112 112 142 162 134 228 -11 104 -114 179 -212 155z"/>
<path d="M3600 2823 c-439 -441 -744 -754 -757 -779 l-22 -41 104 -103 103
-103 49 28 c31 18 303 282 781 760 l734 732 -122 119 c-67 65 -125 120 -128
122 -4 1 -338 -330 -742 -735z"/>
<path d="M1388 3374 c-31 -16 -79 -83 -96 -133 -8 -23 -12 -139 -12 -361 0
-293 2 -335 20 -404 28 -109 63 -169 150 -257 120 -121 241 -169 425 -169 123
0 206 19 299 68 130 68 231 191 275 336 19 63 21 92 21 381 0 238 -3 315 -13
323 -8 7 -48 7 -122 2 -207 -17 -335 8 -543 106 -250 119 -340 143 -404 108z"/>
<path d="M1035 2983 c-32 -9 -65 -34 -81 -64 -45 -87 23 -189 126 -189 l30 0
0 130 0 130 -27 -1 c-16 -1 -37 -4 -48 -6z"/>
<path d="M2650 2859 l0 -132 46 6 c80 9 134 85 113 160 -15 54 -74 97 -135 97
l-24 0 0 -131z"/>
<path d="M3493 1978 l-83 -83 0 -715 0 -715 -23 -39 c-14 -25 -39 -48 -66 -63
l-44 -23 -534 0 -534 0 7 -48 c3 -26 1 -65 -4 -85 l-11 -38 562 3 c557 3 562
3 610 25 101 47 174 130 197 223 7 31 10 288 8 843 l-3 797 -82 -82z"/>
<path d="M1373 1949 c-194 -33 -374 -152 -451 -297 -58 -109 -66 -160 -67
-425 l0 -239 28 -24 28 -24 970 0 970 0 25 25 26 26 -4 254 c-2 171 -7 258
-14 265 -9 9 -48 -8 -151 -64 -121 -66 -147 -76 -190 -76 -60 0 -107 28 -135
80 -33 60 -21 106 70 276 45 83 82 156 82 162 0 15 -116 50 -213 65 -69 10
-84 9 -125 -7 -158 -60 -158 -60 -342 -60 -175 -1 -175 -1 -265 33 -99 36
-162 44 -242 30z"/>
<path d="M2653 1689 c-34 -63 -60 -116 -58 -118 6 -5 215 109 215 118 0 4 -22
31 -48 61 l-48 54 -61 -115z"/>
<path d="M1735 315 c-25 -24 -32 -65 -19 -100 13 -32 59 -45 168 -45 95 0 107
2 130 22 15 13 29 37 32 55 5 27 1 37 -24 63 -30 30 -31 30 -147 30 -110 0
-117 -1 -140 -25z"/>
</g>
</svg>
