<?xml version="1.0" standalone="no"?>
<!DOCTYPE svg PUBLIC "-//W3C//DTD SVG 20010904//EN"
 "http://www.w3.org/TR/2001/REC-SVG-20010904/DTD/svg10.dtd">
<svg version="1.0" xmlns="http://www.w3.org/2000/svg"
 width="512.000000pt" height="512.000000pt" viewBox="0 0 512.000000 512.000000"
 preserveAspectRatio="xMidYMid meet">

<g transform="translate(0.000000,512.000000) scale(0.100000,-0.100000)"
fill="#000000" stroke="none">
<path d="M2475 5019 c-36 -21 -217 -203 -230 -233 -15 -35 -3 -81 25 -96 37
-20 70 -11 115 31 l45 42 0 -207 c0 -193 1 -207 20 -226 13 -13 33 -20 59 -20
67 0 71 13 71 248 l0 205 45 -42 c43 -40 72 -49 110 -35 23 9 46 60 40 87 -8
32 -224 244 -255 251 -14 3 -34 1 -45 -5z"/>
<path d="M3755 4663 c-75 -20 -139 -43 -151 -55 -40 -37 -36 -93 10 -123 22
-15 30 -15 82 -1 32 8 59 14 61 13 1 -2 -43 -78 -98 -170 -61 -104 -99 -179
-99 -196 0 -56 82 -96 125 -61 8 7 59 89 112 182 l97 170 13 -48 c16 -56 52
-94 89 -94 26 0 74 40 74 62 0 37 -81 323 -96 339 -24 27 -67 23 -219 -18z"/>
<path d="M1093 4585 c-17 -7 -35 -25 -41 -41 -21 -53 -72 -259 -72 -290 0 -61
66 -94 117 -59 12 9 27 36 34 65 7 27 15 50 18 50 3 0 48 -75 100 -165 51 -91
102 -170 112 -175 30 -16 78 -11 99 10 36 36 26 73 -64 229 -122 214 -115 192
-55 176 59 -16 90 -8 114 28 18 28 12 67 -14 91 -13 12 -157 55 -297 88 -12 3
-35 0 -51 -7z"/>
<path d="M2355 4215 c-710 -101 -1242 -599 -1397 -1308 -20 -89 -23 -131 -22
-322 0 -206 1 -228 28 -340 35 -148 48 -184 151 -415 104 -232 164 -393 220
-585 99 -344 155 -697 155 -982 0 -61 3 -119 6 -128 18 -46 0 -45 1064 -45
1064 0 1046 -1 1064 45 3 9 6 183 6 386 l0 369 208 0 c114 0 223 4 241 10 35
10 84 49 104 85 8 12 14 93 17 210 l5 190 187 5 188 5 32 32 c26 26 32 41 32
70 0 23 -98 313 -240 718 -132 374 -249 716 -258 760 -117 513 -512 962 -1011
1148 -239 89 -546 125 -780 92z m650 -756 c365 -91 453 -116 472 -135 l23 -23
0 -459 c0 -423 -1 -461 -17 -480 -11 -13 -97 -48 -223 -92 -113 -40 -314 -112
-447 -161 -133 -49 -250 -89 -259 -89 -10 0 -223 72 -473 161 -304 107 -462
167 -473 181 -17 19 -18 57 -18 482 0 383 2 466 14 482 11 15 115 44 463 130
246 62 457 113 468 113 11 1 222 -49 470 -110z"/>
<path d="M2300 3360 c-334 -87 -351 -92 -347 -96 2 -2 136 -51 297 -110 l295
-105 290 102 c269 94 331 118 313 119 -4 0 -139 34 -301 75 -161 41 -300 75
-308 74 -8 0 -115 -27 -239 -59z"/>
<path d="M1752 2814 l3 -356 345 -124 c190 -68 351 -124 358 -124 9 0 12 76
12 349 0 323 -1 349 -17 356 -90 34 -692 255 -697 255 -3 0 -5 -160 -4 -356z"/>
<path d="M3125 3094 c-110 -41 -269 -99 -352 -130 l-153 -56 0 -349 c0 -273 3
-349 13 -349 6 0 167 55 357 123 l345 122 3 358 c1 196 -1 357 -5 356 -5 -1
-98 -34 -208 -75z"/>
<path d="M4690 3783 c-30 -11 -50 -37 -50 -65 0 -47 17 -66 75 -84 43 -14 53
-20 43 -29 -7 -6 -84 -53 -170 -104 -127 -75 -159 -98 -167 -122 -11 -33 -2
-67 24 -89 35 -29 76 -14 240 83 88 53 161 94 163 92 2 -2 -2 -27 -9 -54 -12
-47 -11 -53 8 -79 26 -35 83 -42 111 -14 20 20 82 235 89 312 7 67 -13 80
-189 124 -81 20 -149 36 -150 35 -2 0 -10 -3 -18 -6z"/>
<path d="M245 3570 c-148 -41 -175 -57 -175 -109 1 -50 77 -304 96 -318 21
-15 68 -17 94 -3 31 16 40 62 25 119 -7 28 -10 49 -7 48 4 -2 85 -50 181 -107
151 -89 178 -101 200 -94 37 13 58 55 46 91 -8 22 -46 50 -178 130 -93 55
-171 104 -174 107 -3 3 16 10 42 17 56 14 85 42 85 81 0 35 -40 78 -72 77 -13
0 -86 -18 -163 -39z"/>
</g>
</svg>
