<?xml version="1.0" standalone="no"?>
<!DOCTYPE svg PUBLIC "-//W3C//DTD SVG 20010904//EN"
 "http://www.w3.org/TR/2001/REC-SVG-20010904/DTD/svg10.dtd">
<svg version="1.0" xmlns="http://www.w3.org/2000/svg"
 width="512.000000pt" height="512.000000pt" viewBox="0 0 512.000000 512.000000"
 preserveAspectRatio="xMidYMid meet">

<g transform="translate(0.000000,512.000000) scale(0.100000,-0.100000)"
fill="#000000" stroke="none">
<path d="M4894 4752 c-96 -57 -253 -175 -389 -293 -95 -81 -637 -594 -643
-608 -1 -3 41 -49 93 -101 l95 -95 49 50 c546 559 778 831 880 1032 40 79 25
82 -85 15z"/>
<path d="M183 4270 c-45 -27 -65 -62 -65 -114 -1 -55 26 -103 72 -127 33 -18
93 -19 1623 -19 1724 0 1630 -3 1675 55 45 57 37 137 -19 191 l-30 29 -1612 3
c-1584 2 -1613 2 -1644 -18z"/>
<path d="M377 3893 c-4 -3 -7 -393 -7 -865 l0 -858 267 2 267 3 261 557 c144
307 268 564 275 573 8 10 25 15 44 13 28 -3 52 -31 234 -273 111 -148 206
-271 211 -273 4 -1 57 73 116 165 60 92 117 178 128 191 23 25 68 29 86 8 6
-7 114 -226 240 -487 l228 -474 267 -3 266 -2 0 215 c0 118 -3 215 -7 215 -5
0 -35 -9 -67 -20 -142 -48 -325 -47 -464 2 -115 40 -132 84 -57 142 85 64 107
106 160 305 19 73 46 152 61 176 55 94 152 154 294 182 l80 16 0 249 0 248
-1438 0 c-791 0 -1442 -3 -1445 -7z m549 -141 c62 -32 97 -65 129 -124 27 -47
30 -62 30 -138 0 -69 -5 -93 -23 -127 -30 -58 -86 -111 -141 -137 -67 -30
-180 -29 -241 3 -61 32 -107 77 -138 136 -37 72 -37 178 1 251 31 61 102 127
160 148 58 22 169 16 223 -12z"/>
<path d="M714 3641 c-104 -64 -111 -222 -13 -292 38 -27 113 -36 162 -20 46
15 93 69 107 121 19 72 -21 159 -91 195 -40 21 -127 19 -165 -4z"/>
<path d="M3725 3730 l-39 -40 102 -103 102 -102 42 43 43 42 -100 100 c-55 55
-102 100 -105 100 -3 0 -24 -18 -45 -40z"/>
<path d="M3541 3534 c-33 -44 -69 -99 -78 -123 -16 -42 -16 -44 3 -54 10 -5
41 -32 67 -59 l49 -50 51 26 c54 26 160 110 165 130 1 6 -42 55 -96 110 l-99
98 -62 -78z"/>
<path d="M3162 3264 c-68 -18 -103 -36 -141 -75 -44 -44 -55 -68 -91 -209 -37
-142 -57 -192 -100 -255 -21 -30 -26 -46 -19 -51 7 -4 53 -9 103 -12 123 -6
226 16 342 73 110 53 201 142 228 221 41 121 4 256 -83 301 -52 27 -154 30
-239 7z"/>
<path d="M1467 3099 c-29 -66 -427 -911 -434 -922 -2 -4 114 -6 258 -5 l262 3
153 235 c85 129 154 238 154 243 0 6 -337 466 -361 491 -4 5 -19 -15 -32 -45z"/>
<path d="M2095 2798 c-60 -94 -176 -273 -256 -397 l-147 -226 230 -3 c126 -1
330 -1 453 0 l223 3 -191 398 c-105 218 -194 397 -197 397 -3 -1 -54 -78 -115
-172z"/>
<path d="M190 2032 c-96 -48 -96 -196 0 -244 33 -17 131 -18 1630 -18 1563 0
1596 0 1627 20 92 56 94 177 4 237 l-34 23 -1596 0 c-1500 0 -1598 -1 -1631
-18z"/>
<path d="M1015 1638 c-21 -57 -315 -1179 -315 -1201 0 -60 56 -117 116 -117
33 0 86 34 100 64 8 17 86 301 174 631 89 330 163 608 166 618 5 15 -5 17
-116 17 -87 0 -122 -3 -125 -12z"/>
<path d="M1700 1020 c0 -692 -2 -673 60 -705 50 -26 97 -20 136 19 l34 34 0
641 0 641 -115 0 -115 0 0 -630z"/>
<path d="M2542 1018 c150 -562 172 -636 197 -661 58 -59 155 -38 188 41 15 37
14 41 -148 644 l-162 608 -122 0 -122 0 169 -632z"/>
<path d="M1288 1305 c-8 -30 -13 -57 -10 -60 3 -3 72 -5 154 -5 l148 0 0 60 0
60 -138 0 -139 0 -15 -55z"/>
<path d="M2050 1300 l0 -60 155 0 c85 0 155 4 155 8 0 5 -7 32 -15 60 l-16 52
-139 0 -140 0 0 -60z"/>
<path d="M1195 958 c-8 -28 -15 -55 -15 -60 0 -4 90 -8 200 -8 l200 0 0 60 0
60 -185 0 -184 0 -16 -52z"/>
<path d="M2050 950 l0 -60 200 0 c116 0 200 4 200 9 0 5 -5 32 -12 60 l-11 51
-189 0 -188 0 0 -60z"/>
<path d="M333 154 c-15 -24 -15 -29 -2 -53 l15 -26 2209 -3 c2044 -2 2210 -1
2227 15 23 21 23 55 0 76 -17 16 -186 17 -2225 17 l-2207 0 -17 -26z"/>
</g>
</svg>
