<?xml version="1.0" standalone="no"?>
<!DOCTYPE svg PUBLIC "-//W3C//DTD SVG 20010904//EN"
 "http://www.w3.org/TR/2001/REC-SVG-20010904/DTD/svg10.dtd">
<svg version="1.0" xmlns="http://www.w3.org/2000/svg"
 width="512.000000pt" height="512.000000pt" viewBox="0 0 512.000000 512.000000"
 preserveAspectRatio="xMidYMid meet">

<g transform="translate(0.000000,512.000000) scale(0.100000,-0.100000)"
fill="#000000" stroke="none">
<path d="M2380 4954 c-160 -18 -230 -29 -330 -51 -900 -197 -1601 -880 -1820
-1775 -52 -213 -64 -322 -64 -568 0 -246 13 -358 64 -568 92 -375 262 -706
515 -1000 383 -445 916 -731 1515 -814 123 -17 478 -16 600 1 633 87 1185 397
1571 881 271 339 436 719 505 1162 25 157 25 518 1 675 -82 521 -313 985 -671
1347 -369 373 -831 608 -1363 691 -93 15 -448 28 -523 19z m545 -153 c1081
-184 1868 -1082 1902 -2171 18 -594 -193 -1166 -591 -1598 -363 -394 -816
-635 -1348 -719 -139 -22 -510 -25 -633 -5 -518 85 -939 292 -1286 634 -353
347 -574 780 -656 1283 -28 170 -25 527 6 698 109 616 413 1109 909 1475 316
234 712 382 1137 426 104 11 444 -3 560 -23z"/>
<path d="M3515 4091 c-138 -39 -263 -138 -328 -258 -58 -108 -81 -273 -56
-395 30 -143 135 -282 263 -349 l66 -34 0 -760 c0 -478 4 -773 10 -796 15 -54
51 -101 95 -126 39 -22 49 -23 303 -23 239 0 266 2 300 19 130 67 149 231 39
328 -49 43 -91 53 -229 53 l-118 0 0 74 0 73 98 5 c109 5 142 18 190 72 77 88
58 228 -40 293 -36 25 -54 29 -142 33 l-101 5 -3 372 -2 372 62 33 c82 42 195
155 231 230 59 123 72 286 33 411 -59 187 -207 329 -388 372 -83 19 -208 18
-283 -4z m255 -282 c55 -25 105 -71 133 -124 31 -57 31 -183 0 -241 -26 -49
-92 -111 -142 -131 -87 -37 -213 -11 -283 59 -68 69 -95 177 -67 276 16 57
105 152 159 169 59 18 150 15 200 -8z"/>
<path d="M3600 3693 c-102 -53 -106 -193 -8 -253 41 -25 92 -26 137 -2 96 48
106 181 20 245 -38 28 -106 32 -149 10z"/>
<path d="M1842 3590 c-391 -103 -585 -529 -405 -893 47 -95 170 -218 263 -264
202 -101 438 -87 624 38 173 115 264 279 274 489 5 125 -10 197 -65 310 -51
106 -169 223 -275 274 -138 66 -279 82 -416 46z"/>
<path d="M1343 2320 c-211 -72 -276 -105 -351 -184 -119 -123 -152 -228 -152
-481 0 -158 2 -174 22 -215 13 -24 40 -58 61 -74 l39 -31 1018 0 1018 0 39 31
c21 16 48 50 60 74 21 41 23 57 23 215 0 253 -33 358 -152 481 -76 80 -147
116 -366 189 l-173 57 -102 -51 c-136 -68 -205 -85 -347 -85 -142 0 -211 17
-345 84 -56 27 -105 50 -110 49 -6 0 -87 -27 -182 -59z"/>
</g>
</svg>
