<?xml version="1.0" standalone="no"?>
<!DOCTYPE svg PUBLIC "-//W3C//DTD SVG 20010904//EN"
 "http://www.w3.org/TR/2001/REC-SVG-20010904/DTD/svg10.dtd">
<svg version="1.0" xmlns="http://www.w3.org/2000/svg"
 width="512.000000pt" height="512.000000pt" viewBox="0 0 512.000000 512.000000"
 preserveAspectRatio="xMidYMid meet">

<g transform="translate(0.000000,512.000000) scale(0.100000,-0.100000)"
fill="#000000" stroke="none">
<path d="M2105 4953 c-474 -43 -926 -349 -1147 -779 -344 -665 -135 -1473 487
-1886 122 -81 206 -122 344 -168 274 -92 544 -102 826 -30 546 138 961 584
1071 1150 27 140 25 409 -4 547 -158 741 -825 1234 -1577 1166z"/>
<path d="M1211 2174 c-256 -76 -465 -200 -655 -389 -124 -123 -210 -243 -287
-400 -96 -198 -145 -381 -156 -590 -9 -170 17 -274 98 -396 49 -73 112 -127
199 -173 130 -69 50 -66 1650 -66 l1444 0 -79 52 c-103 67 -239 199 -305 294
-69 100 -133 238 -167 360 -26 92 -28 112 -27 279 0 163 3 189 27 280 69 254
243 499 453 637 35 23 61 45 58 49 -6 11 -211 77 -261 85 -34 5 -47 1 -96 -30
-186 -119 -418 -204 -646 -237 -123 -17 -421 -6 -536 20 -190 44 -362 114
-511 207 -40 24 -82 44 -95 43 -13 0 -62 -11 -108 -25z"/>
<path d="M3912 2119 c-222 -27 -418 -123 -578 -283 -331 -330 -384 -845 -127
-1233 51 -78 174 -206 249 -259 85 -61 231 -128 339 -155 74 -19 116 -23 235
-23 127 0 157 3 244 27 524 144 833 663 706 1187 -25 100 -93 248 -154 334
-57 79 -185 203 -260 251 -194 123 -437 181 -654 154z m234 -215 c30 -18 60
-49 79 -78 l30 -49 3 -199 4 -198 157 0 c87 0 183 -5 212 -10 74 -14 127 -53
162 -120 25 -48 28 -63 25 -122 -3 -55 -9 -75 -34 -110 -34 -49 -81 -83 -133
-98 -20 -5 -116 -10 -213 -10 l-178 0 0 -177 c0 -98 -5 -194 -10 -214 -15 -52
-49 -99 -98 -133 -37 -26 -54 -31 -115 -34 -63 -2 -78 1 -122 25 -61 35 -102
92 -115 162 -5 29 -10 125 -10 212 l0 157 -198 4 -199 3 -49 30 c-127 79 -150
257 -46 357 70 68 86 72 298 76 l192 4 4 192 c4 170 7 195 25 231 67 128 213
171 329 99z"/>
</g>
</svg>
